<svg width="13" height="12" viewBox="0 0 13 12" fill="none" xmlns="http://www.w3.org/2000/svg">
<g clip-path="url(#clip0)">
<path fill-rule="evenodd" clip-rule="evenodd" d="M11.3599 0.517274L9.40862 1.10458L8.74554 0.422548C8.66857 0.325925 8.56219 0.25702 8.44249 0.22625C8.32297 0.195486 8.19642 0.20454 8.08245 0.252042H8.0634C7.88782 0.333204 7.74684 0.474235 7.66562 0.649893C7.64675 0.687785 7.64675 0.744619 7.62769 0.801452L7.55202 0.763559C7.5067 0.750961 7.45841 0.755615 7.41641 0.776614C7.37441 0.797619 7.34167 0.833476 7.32464 0.877232C7.31558 0.900844 7.31132 0.926023 7.31225 0.951283C7.31299 0.976548 7.31891 1.00139 7.32945 1.02433C7.34018 1.04729 7.35517 1.06789 7.37386 1.08492C7.39254 1.10196 7.41437 1.11508 7.43824 1.12352L7.72242 1.21825L7.8362 1.33192L8.51816 1.995L8.3287 2.65808C7.44305 2.02964 6.35259 1.75949 5.27601 1.90187C4.19942 2.04426 3.21664 2.58864 2.52488 3.42571C1.83312 4.26279 1.48363 5.33057 1.54654 6.41467C1.60944 7.49877 2.0803 8.51891 2.86438 9.27027C3.64827 10.0216 4.68767 10.4486 5.77332 10.4654C6.85915 10.4822 7.91113 10.0876 8.71797 9.36082C9.52499 8.63408 10.0269 7.62898 10.1235 6.54735C10.2199 5.46572 9.90371 4.38764 9.23804 3.52956L9.54127 2.96121L10.28 3.64324L10.0906 4.23054C10.0806 4.26131 10.0808 4.29445 10.0911 4.32513C10.1013 4.3558 10.1211 4.3824 10.1474 4.40104C10.1474 4.40104 10.5074 4.76101 10.5074 4.77995C10.5505 4.80071 10.5997 4.80443 10.6454 4.79038C10.6911 4.77633 10.7298 4.74554 10.7537 4.70417L11.2273 3.83269L12.0989 3.35906C12.1207 3.3514 12.1405 3.33885 12.1566 3.32237C12.1651 3.3137 12.1725 3.30407 12.1788 3.29371C12.1844 3.28435 12.189 3.27438 12.1925 3.26397C12.1955 3.25483 12.1977 3.24544 12.199 3.23595C12.2006 3.22266 12.2006 3.20914 12.1988 3.19577C12.1958 3.17285 12.1875 3.15094 12.1745 3.13171C12.1745 3.12552 12.1727 3.11933 12.1701 3.11314L12.1653 3.1033C12.1627 3.09817 12.1601 3.09303 12.1583 3.08789L12.1566 3.08185C12.156 3.07953 12.1557 3.0772 12.1557 3.07488L11.8147 2.73387C11.7914 2.71434 11.7636 2.70069 11.734 2.6941C11.7209 2.6912 11.7076 2.6897 11.6943 2.6896C11.6774 2.68946 11.6606 2.69159 11.6441 2.69597L11.0569 2.86648L10.3748 2.14656L11.9094 1.27508C11.9309 1.26679 11.9503 1.25422 11.9668 1.23816C11.9834 1.22211 11.9964 1.20288 12.0053 1.18163C12.0141 1.16039 12.0186 1.13758 12.0184 1.11457C12.0182 1.09156 12.0132 1.06882 12.0042 1.04774L11.9662 0.990904L11.5305 0.555166C11.5072 0.535636 11.4795 0.521991 11.4499 0.515395C11.4201 0.508804 11.3894 0.509445 11.3599 0.517274ZM3.04291 3.35906C3.40961 2.99563 3.8442 2.70814 4.32209 2.51307C4.79997 2.31801 5.31171 2.21921 5.8279 2.22234H6.07415C6.75629 2.86649 6.56684 3.45379 6.0932 3.96531C5.82623 4.261 5.53465 4.53352 5.22161 4.77995L5.09562 4.88984C4.69137 5.24157 4.3343 5.55239 4.17963 5.87877C4.00923 6.23873 4.14188 6.69342 4.89969 7.03443C5.14409 7.12327 5.36925 7.25835 5.56278 7.43228C5.37628 7.50833 5.17666 7.54696 4.97536 7.54595C4.04716 7.58385 3.40295 6.99654 2.89139 6.52291C2.37983 6.04928 2.20943 5.93561 1.9062 5.93561C1.94949 4.96479 2.35504 4.04545 3.04291 3.35906ZM9.76847 6.14401C9.76736 6.97438 9.50501 7.78334 9.01898 8.4565C8.53277 9.12966 7.8473 9.63294 7.05934 9.89516C7.01456 9.60816 7.06785 9.3144 7.21086 9.06157C7.4005 8.74888 7.65193 8.47812 7.9498 8.26587C9.06764 7.31861 9.14331 6.78814 9.18124 6.39029C9.21917 5.99245 9.23804 5.93561 9.7496 5.67038C9.76532 5.82774 9.77161 5.9859 9.76847 6.14401ZM9.54127 4.83678C9.6027 4.98276 9.64728 5.13533 9.67374 5.29147C8.91593 5.68932 8.87819 5.9735 8.84026 6.3524C8.80233 6.7313 8.72648 7.1481 7.72242 8.00064C7.38792 8.2465 7.10485 8.55542 6.88894 8.91001C6.70134 9.23683 6.64065 9.6212 6.71836 9.98989C6.21328 10.1078 5.68988 10.1248 5.17814 10.04C4.66658 9.95514 4.17667 9.77013 3.73652 9.49555C3.29656 9.22098 2.91507 8.86223 2.61405 8.4399C2.31286 8.01756 2.09824 7.53994 1.98205 7.03443C1.93192 6.79089 1.90028 6.54389 1.88733 6.29557C2.07678 6.29557 2.34209 6.52291 2.64514 6.78814L2.6703 6.81011C2.99962 7.09912 3.96094 7.94281 4.99442 7.90591C5.24788 7.90118 5.49839 7.84981 5.73317 7.75435C5.78257 7.73752 5.82642 7.70739 5.8599 7.66729C5.87933 7.64383 5.89487 7.61748 5.90597 7.58931C5.90912 7.58122 5.91189 7.57298 5.9143 7.5646L5.91763 7.55218C5.91966 7.54389 5.92133 7.53549 5.92262 7.52701C5.93835 7.47131 5.93964 7.41251 5.92651 7.35617C5.91319 7.29982 5.88581 7.24778 5.84695 7.20494C5.61495 6.99214 5.34502 6.82502 5.05122 6.71236C4.52079 6.48502 4.40701 6.25768 4.52079 6.03033C4.63439 5.803 5.03216 5.42409 5.44899 5.04518C5.52651 4.97468 5.59682 4.91139 5.66194 4.85312L5.78109 4.74674L5.79386 4.73538C6.00828 4.54413 6.17072 4.39917 6.37738 4.19265C6.68043 3.88953 7.13519 2.98015 6.62363 2.27918C7.20161 2.39584 7.74573 2.64198 8.21511 2.9991L7.93093 3.92741C7.92297 3.95984 7.92205 3.99363 7.92871 4.02637C7.93518 4.05911 7.94887 4.09001 7.96867 4.11687L8.4423 4.57155C8.45877 4.58058 8.47616 4.58705 8.4941 4.59089C8.52112 4.59663 8.54924 4.59649 8.57643 4.59021C8.62176 4.57973 8.66173 4.55285 8.68874 4.51472L9.04859 3.87058C9.26468 4.16343 9.43119 4.48986 9.54127 4.83678ZM9.99585 1.93817C9.95773 1.96503 9.93091 2.005 9.92036 2.05044L9.9187 2.05882L9.91722 2.06821C9.91648 2.07264 9.91611 2.07708 9.91592 2.08153L9.91555 2.09086C9.91537 2.10024 9.91592 2.10961 9.91722 2.11888C9.92036 2.1417 9.92776 2.16394 9.93905 2.18445L10.8863 3.18855C10.905 3.21498 10.9316 3.23475 10.9622 3.24497C10.9929 3.2552 11.026 3.25534 11.0569 3.24538L11.6441 3.05593L11.7388 3.15066L11.1894 3.45378L11.0378 3.54851C11.0171 3.5527 10.9979 3.56176 10.9814 3.57493C10.9736 3.58109 10.9668 3.58806 10.9607 3.5957C10.9537 3.60442 10.9477 3.61403 10.9431 3.62429L10.8674 3.77585L10.5642 4.32526L10.4695 4.23054L10.6589 3.64324C10.6678 3.60949 10.6673 3.57394 10.6573 3.5405C10.6473 3.50707 10.6282 3.47707 10.6021 3.45378L9.636 2.54441C9.60159 2.51507 9.55792 2.49893 9.51278 2.49893C9.46764 2.49893 9.42397 2.51507 9.38956 2.54441H9.37069L8.49928 4.11687L8.30983 3.92741L8.89706 1.97606C8.90853 1.94249 8.90909 1.9062 8.89891 1.87225C8.88873 1.83829 8.8682 1.80836 8.84026 1.78661L8.0634 1.06668C8.02362 1.02839 7.99661 0.978584 7.98643 0.924231C7.97626 0.869883 7.98329 0.813709 8.0066 0.763559C8.04934 0.682813 8.11538 0.616798 8.19605 0.574107H8.21511C8.26432 0.554496 8.31853 0.551275 8.36978 0.564926C8.37736 0.566949 8.38476 0.56932 8.39198 0.572037L8.40345 0.576616C8.41011 0.579536 8.41677 0.582756 8.42324 0.586266C8.45248 0.602026 8.47838 0.623609 8.49928 0.649893L9.21917 1.42664C9.22638 1.43197 9.23378 1.43686 9.24155 1.44129L9.25506 1.44835L9.26912 1.4546C9.28226 1.45987 9.29576 1.46394 9.30964 1.46671C9.34238 1.47327 9.37624 1.47252 9.40862 1.46453L11.3599 0.877232L11.5494 1.06668L9.99585 1.93817Z" fill="#FFE800"/>
<path d="M6.62363 0.934071H6.66156C6.70874 0.934308 6.75425 0.916963 6.78922 0.885436C6.80199 0.873954 6.8129 0.860881 6.82197 0.846641C6.8253 0.84142 6.82844 0.836043 6.83122 0.830534C6.84176 0.809795 6.84861 0.787114 6.85101 0.763559C6.85175 0.714265 6.8351 0.666283 6.80384 0.628131C6.77275 0.589978 6.72891 0.564122 6.68043 0.555166L6.16887 0.517274C6.14112 0.506583 6.11097 0.502646 6.08136 0.50578C6.05158 0.508913 6.02308 0.519037 5.99792 0.535318C5.97295 0.551599 5.95204 0.573575 5.93705 0.599454C5.92207 0.625332 5.91356 0.654385 5.91189 0.68423C5.91097 0.702112 5.91263 0.719972 5.9167 0.737293C5.91948 0.74888 5.92318 0.760223 5.92799 0.771168C5.9402 0.798474 5.9587 0.82252 5.98183 0.841339C5.98793 0.846335 5.99441 0.850931 6.00125 0.8551C6.00847 0.859569 6.01587 0.863552 6.02345 0.867016C6.03567 0.872479 6.04843 0.876659 6.06157 0.879463C6.0908 0.885702 6.12114 0.884933 6.15 0.877232C6.30893 0.886818 6.46693 0.905805 6.62363 0.934071Z" fill="#FFE800"/>
<path d="M4.78591 0.971958H4.82384L5.29747 0.896178C5.32633 0.903879 5.35667 0.904648 5.3859 0.89841L5.39645 0.895837L5.40533 0.893177C5.42716 0.886002 5.44751 0.874873 5.46564 0.860286C5.48877 0.841461 5.50727 0.817421 5.5193 0.790114C5.53151 0.762808 5.53706 0.733009 5.53539 0.70317C5.53391 0.673325 5.52522 0.644279 5.51042 0.6184C5.49543 0.592521 5.47452 0.57054 5.44955 0.554259C5.42439 0.537978 5.39589 0.527854 5.36611 0.52472C5.33651 0.521581 5.30635 0.525524 5.27841 0.53622L4.76704 0.612C4.72967 0.626321 4.69766 0.652124 4.67583 0.685698C4.654 0.719272 4.64345 0.758888 4.64549 0.798868C4.64771 0.838848 4.66232 0.877133 4.68767 0.908233C4.71283 0.939326 4.74724 0.961638 4.78591 0.971958Z" fill="#FFE800"/>
<path d="M0.693816 4.32526C0.716202 4.3341 0.740069 4.33814 0.763935 4.33711C0.787987 4.33607 0.811483 4.32999 0.832945 4.31926C0.854406 4.30853 0.873277 4.2934 0.888448 4.27484C0.903804 4.25629 0.914905 4.23474 0.921195 4.21159C0.979104 4.06113 1.04885 3.91544 1.12952 3.77585C1.14895 3.73054 1.14987 3.67949 1.13211 3.63351C1.11453 3.58753 1.07957 3.55024 1.03479 3.52956C1.00649 3.51591 0.975404 3.50962 0.944507 3.51092C0.928411 3.5116 0.912315 3.51433 0.896774 3.51913C0.851076 3.53319 0.812408 3.56398 0.788542 3.60534C0.711207 3.75963 0.641642 3.91771 0.580218 4.07897C0.576703 4.08802 0.573928 4.0973 0.571893 4.10673C0.568563 4.1219 0.567268 4.13744 0.567823 4.15302C0.568563 4.17829 0.574483 4.20313 0.585029 4.22608C0.595759 4.24903 0.610745 4.26963 0.629432 4.28666C0.648118 4.30369 0.669949 4.31682 0.693816 4.32526Z" fill="#FFE800"/>
<path d="M0.409452 5.65143H0.390581C0.36616 5.64934 0.342663 5.64205 0.321387 5.63004C0.30011 5.61804 0.281609 5.60159 0.267178 5.58183C0.252932 5.56206 0.242942 5.53945 0.237946 5.5155C0.233136 5.49155 0.233506 5.46683 0.239056 5.44303L0.245162 5.39562C0.262183 5.25634 0.280869 5.1034 0.314726 4.95045C0.313986 4.94019 0.315096 4.92985 0.318426 4.92008C0.321757 4.91031 0.326937 4.90131 0.333782 4.89362C0.350804 4.84987 0.383551 4.81401 0.425548 4.793C0.467546 4.772 0.515834 4.76734 0.561162 4.77995C0.584844 4.78839 0.60686 4.80151 0.625546 4.81855C0.644233 4.83558 0.659218 4.85618 0.669764 4.87913C0.674944 4.89031 0.679015 4.90195 0.681975 4.91386C0.68512 4.9264 0.686785 4.93924 0.687155 4.95219C0.68771 4.96766 0.686415 4.98309 0.683085 4.99815C0.68105 5.00769 0.678275 5.01708 0.674759 5.02623C0.638867 5.18222 0.613521 5.34045 0.598905 5.49987C0.590209 5.5433 0.566342 5.58226 0.531745 5.60995C0.497148 5.63765 0.453855 5.65232 0.409452 5.65143Z" fill="#FFE800"/>
<path d="M1.80666 10.0278C1.80666 9.9802 1.82165 9.93381 1.8494 9.89516C1.85477 9.89055 1.86032 9.88627 1.86624 9.88233L1.87419 9.87717C1.88455 9.87094 1.89528 9.86572 1.90657 9.86158C1.93173 9.8523 1.95874 9.84834 1.98594 9.85028C2.01406 9.8523 2.04126 9.86059 2.06549 9.87424C2.08381 9.88458 2.10046 9.898 2.11452 9.91411C2.22553 10.0312 2.34579 10.139 2.47456 10.2362C2.4925 10.2508 2.50712 10.2689 2.51785 10.2893C2.52451 10.3019 2.52932 10.3152 2.53265 10.3289C2.53468 10.3376 2.53616 10.3464 2.5369 10.3553C2.53857 10.3783 2.53561 10.4014 2.52821 10.4233C2.52358 10.437 2.51729 10.4499 2.50952 10.4619C2.50471 10.4691 2.49935 10.476 2.49343 10.4825C2.46068 10.5198 2.41443 10.5427 2.36484 10.5463C2.31508 10.5498 2.26605 10.5337 2.2283 10.5014L1.8494 10.1604C1.82165 10.1217 1.80666 10.0754 1.80666 10.0278Z" fill="#FFE800"/>
<path d="M1.03294 8.80998C1.02073 8.81938 1.00982 8.83042 1.00057 8.84281C0.986135 8.86185 0.976144 8.88368 0.970779 8.90688C0.965413 8.93008 0.964858 8.95414 0.969484 8.97752C0.971149 8.98607 0.973369 8.99447 0.976329 9.00263C0.977809 9.00689 0.979659 9.0111 0.981509 9.01523C0.985765 9.0248 0.990945 9.03397 0.996865 9.04262C1.07809 9.19625 1.17318 9.34211 1.28104 9.47836C1.29566 9.49627 1.31379 9.51102 1.33414 9.52172C1.35468 9.53243 1.37706 9.53887 1.40019 9.54064C1.41111 9.54149 1.42221 9.54126 1.43312 9.53998C1.44496 9.53858 1.45681 9.53592 1.46828 9.53203C1.49011 9.52459 1.51027 9.51277 1.52729 9.49731C1.54672 9.48414 1.563 9.46714 1.57558 9.44737C1.58798 9.42761 1.5963 9.40549 1.59982 9.38239C1.60333 9.3593 1.60204 9.33572 1.59612 9.31312C1.59279 9.30011 1.58779 9.2876 1.58132 9.27581C1.5791 9.27154 1.57669 9.26736 1.5741 9.2633C1.57133 9.25908 1.56837 9.25499 1.56522 9.25102C1.50879 9.18326 1.45903 9.10202 1.40815 9.01937C1.37355 8.96338 1.3384 8.90673 1.3001 8.85317C1.28844 8.83238 1.27253 8.81426 1.25348 8.79995C1.2433 8.79225 1.2322 8.78575 1.22054 8.78055L1.20981 8.77624C1.20315 8.77379 1.19649 8.77175 1.18946 8.77014C1.16634 8.76479 1.14228 8.76435 1.11879 8.76886C1.09548 8.77338 1.07328 8.78273 1.05366 8.79634L1.04386 8.80232L1.03294 8.80998Z" fill="#FFE800"/>
<path d="M0.441644 7.59618L0.449785 7.58598L0.453485 7.58192L0.459221 7.57575L0.467731 7.5678L0.474022 7.56241C0.493818 7.54622 0.516944 7.53409 0.542106 7.52701L0.547471 7.52503L0.558942 7.5214L0.571338 7.5184C0.579108 7.51681 0.587064 7.51578 0.595019 7.5153C0.600755 7.51496 0.60649 7.51492 0.612225 7.51517C0.636277 7.5162 0.659774 7.52228 0.681235 7.53301L0.693261 7.5396L0.703251 7.54626L0.710837 7.55187C0.715277 7.55535 0.719532 7.55905 0.723418 7.56296C0.728043 7.56751 0.732483 7.57234 0.736738 7.57742C0.752094 7.59598 0.763195 7.61753 0.769486 7.64068C0.817959 7.79524 0.874942 7.94704 0.939882 8.09536C0.948947 8.11898 0.953202 8.14415 0.952462 8.16941C0.951537 8.19468 0.945617 8.21952 0.935071 8.24246L0.931556 8.24982L0.928781 8.25498L0.92212 8.26602C0.91324 8.27963 0.902694 8.29208 0.890668 8.30305C0.871982 8.32009 0.850151 8.33321 0.826284 8.34165C0.780956 8.36098 0.729893 8.3619 0.68401 8.34422C0.637942 8.32654 0.600755 8.29164 0.580033 8.24692L0.409452 7.75435C0.404642 7.73478 0.402977 7.71476 0.404457 7.69503C0.406677 7.66667 0.415373 7.6389 0.429804 7.61389C0.433504 7.60774 0.437389 7.60183 0.441644 7.59618Z" fill="#FFE800"/>
<path d="M0.447565 7.03443H0.409637C0.364494 7.03443 0.321017 7.01646 0.28901 6.98449C0.282349 6.97785 0.276429 6.97072 0.271063 6.96319C0.265143 6.95488 0.259963 6.94608 0.255522 6.9369C0.244977 6.9143 0.239241 6.8894 0.239241 6.86392C0.21704 6.69424 0.204459 6.52347 0.201314 6.3524C0.198539 6.32847 0.200944 6.30424 0.208344 6.28132C0.21334 6.26566 0.22074 6.25085 0.229991 6.23733L0.236466 6.2285C0.238686 6.22538 0.241277 6.22234 0.244052 6.21939C0.260148 6.20149 0.279759 6.18721 0.301775 6.17748C0.309916 6.17388 0.318426 6.17093 0.326937 6.16865C0.341553 6.16479 0.356539 6.16286 0.37171 6.16295C0.395576 6.16283 0.419073 6.16721 0.440904 6.17566C0.462366 6.18389 0.482162 6.19601 0.499368 6.21158C0.53452 6.24311 0.556537 6.28656 0.561162 6.33346C0.564492 6.49824 0.577073 6.66269 0.59909 6.82603C0.604825 6.87347 0.592244 6.92132 0.564307 6.95997C0.536186 6.99861 0.494373 7.02521 0.447565 7.03443Z" fill="#FFE800"/>
<path d="M1.44237 3.13131C1.43294 3.13248 1.42332 3.13263 1.4137 3.13171C1.39316 3.13345 1.37244 3.131 1.35283 3.12448C1.3334 3.11796 1.31527 3.10753 1.29991 3.09383C1.29066 3.08752 1.28215 3.08034 1.27438 3.0724C1.26587 3.06374 1.25829 3.05419 1.25181 3.04389C1.23942 3.02412 1.23109 3.002 1.22758 2.97891C1.22406 2.95581 1.22517 2.93223 1.23109 2.90963C1.23331 2.90112 1.23609 2.89282 1.2396 2.88478C1.24534 2.8715 1.25292 2.85898 1.26199 2.84753C1.35875 2.70068 1.46643 2.56135 1.58409 2.43074C1.59871 2.41284 1.61684 2.39808 1.63719 2.38738C1.64755 2.38194 1.65847 2.3776 1.66975 2.37442L1.6827 2.3713C1.68955 2.36995 1.6964 2.369 1.70324 2.36847C1.72618 2.36669 1.74931 2.36962 1.77133 2.37707C1.78206 2.38075 1.79242 2.38551 1.80222 2.39124C1.81221 2.3971 1.82165 2.40398 1.83034 2.4118C1.86772 2.44466 1.89066 2.4909 1.89417 2.54053C1.89787 2.59015 1.88159 2.63919 1.8494 2.67703L1.54617 3.05593C1.5347 3.0807 1.51564 3.10127 1.49196 3.11484C1.4766 3.12361 1.45977 3.12917 1.44237 3.13131Z" fill="#FFE800"/>
<path d="M2.83459 1.80555L2.45568 2.08972C2.41794 2.12203 2.36891 2.13815 2.31933 2.1346C2.30582 2.13364 2.2925 2.13125 2.27974 2.12754C2.2629 2.12262 2.24681 2.11535 2.232 2.10598C2.22627 2.1024 2.22072 2.09851 2.21535 2.09433C2.20647 2.0873 2.19815 2.07943 2.19056 2.07078C2.16466 2.02917 2.1543 1.97978 2.16115 1.93127C2.16429 1.91015 2.17058 1.88978 2.17965 1.87082C2.1913 1.84623 2.20777 1.82401 2.22849 1.80555L2.62627 1.50243C2.63219 1.49781 2.63848 1.49359 2.64477 1.48979C2.64921 1.48713 2.65383 1.48468 2.65846 1.48244C2.66808 1.47788 2.67807 1.47422 2.68843 1.47151C2.711 1.46557 2.7345 1.46434 2.75762 1.46789C2.78075 1.47144 2.80277 1.47971 2.82256 1.49217C2.8307 1.49727 2.83829 1.50303 2.8455 1.50939C2.85568 1.51854 2.86475 1.52892 2.87252 1.54031C2.89028 1.55898 2.90378 1.58143 2.91155 1.606C2.91951 1.63057 2.92154 1.65659 2.91803 1.68213C2.91433 1.70766 2.90489 1.73203 2.89046 1.75341C2.88158 1.7665 2.87104 1.77826 2.85901 1.78837C2.85476 1.79189 2.8505 1.79521 2.84606 1.79833L2.83459 1.80555Z" fill="#FFE800"/>
<path d="M3.49767 1.38876H3.57334C3.71395 1.32057 3.85956 1.26355 4.00923 1.21825C4.03162 1.20985 4.05215 1.19775 4.0701 1.1826C4.08823 1.16732 4.10377 1.14895 4.1158 1.12816C4.14003 1.08675 4.1491 1.03827 4.1417 0.990904C4.13781 0.966072 4.12819 0.942443 4.11395 0.921704C4.0997 0.900971 4.08101 0.883644 4.05937 0.870964C4.03772 0.858291 4.0133 0.850578 3.98832 0.848387C3.96335 0.846196 3.938 0.849572 3.9145 0.858285H3.89545L3.42182 1.06668C3.37704 1.08736 3.34226 1.12465 3.3245 1.17063C3.30692 1.21661 3.30785 1.26766 3.32709 1.31298C3.34559 1.34148 3.37094 1.365 3.40054 1.38152C3.41701 1.39062 3.4344 1.39744 3.45253 1.40184C3.46714 1.40542 3.48232 1.40739 3.49767 1.4077V1.38876Z" fill="#FFE800"/>
<path d="M5.65732 11.4308C5.66361 11.4301 5.6699 11.4297 5.67637 11.4297H6.16906C6.21605 11.4295 6.26175 11.4468 6.29672 11.4784C6.33168 11.5099 6.3537 11.5533 6.35851 11.6002C6.36166 11.612 6.36351 11.6241 6.36369 11.6362C6.36406 11.6492 6.36277 11.6623 6.35962 11.6751C6.35851 11.6801 6.35703 11.6851 6.35537 11.6899C6.35333 11.6956 6.35111 11.7012 6.34834 11.7066C6.34223 11.7192 6.33427 11.731 6.32484 11.7415C6.308 11.7603 6.28654 11.7746 6.26249 11.783C6.23862 11.7915 6.21291 11.7937 6.18793 11.7897H5.67637C5.65232 11.7898 5.62845 11.7849 5.60644 11.7752C5.58442 11.7654 5.56481 11.7511 5.54871 11.7332C5.53262 11.7153 5.52041 11.6942 5.51301 11.6713C5.50561 11.6484 5.5032 11.6242 5.50598 11.6002C5.50598 11.555 5.52392 11.5116 5.55593 11.4797C5.57739 11.4582 5.60403 11.443 5.63289 11.4354L5.64178 11.4333C5.64696 11.4322 5.65214 11.4314 5.65732 11.4308Z" fill="#FFE800"/>
<path d="M10.9242 8.1522C10.9466 8.16104 10.9705 8.16508 10.9945 8.16404C11.0184 8.16301 11.0419 8.15693 11.0634 8.1462C11.0848 8.13548 11.1037 8.12033 11.1191 8.10178C11.1342 8.08323 11.1453 8.06167 11.1516 8.03853C11.2134 7.87801 11.2641 7.71343 11.3031 7.54595C11.3087 7.52353 11.3096 7.50022 11.3059 7.47742C11.3022 7.45462 11.2939 7.43281 11.2815 7.41332C11.2761 7.40478 11.27 7.39677 11.2632 7.38936C11.2543 7.37986 11.2445 7.37136 11.2338 7.36405C11.2147 7.35102 11.1932 7.34201 11.1705 7.33755C11.1631 7.33482 11.1555 7.33261 11.1479 7.33093C11.1411 7.32945 11.1342 7.32839 11.1272 7.32775C11.117 7.3268 11.1068 7.32676 11.0967 7.32766C11.0717 7.32985 11.0473 7.33756 11.0256 7.35023C11.004 7.36291 10.9853 7.38024 10.971 7.40097C10.9568 7.42171 10.9472 7.44534 10.9433 7.47017C10.9309 7.51912 10.9167 7.56807 10.9017 7.61701L10.8769 7.69753C10.8682 7.72529 10.8595 7.75304 10.8512 7.78079C10.8365 7.82881 10.8227 7.87683 10.8106 7.92486C10.8018 7.94716 10.7977 7.97108 10.7988 7.99504C10.7997 8.01901 10.8058 8.04249 10.8166 8.06395C10.8273 8.0854 10.8425 8.10435 10.861 8.11956C10.8711 8.1279 10.8822 8.13501 10.8941 8.14078C10.9037 8.14552 10.9139 8.14935 10.9242 8.1522Z" fill="#FFE800"/>
<path d="M11.2463 5.44303H11.2273C11.2216 5.44273 11.216 5.4422 11.2104 5.44144L11.1956 5.43888L11.1884 5.43727C11.1771 5.43449 11.166 5.43077 11.1555 5.42618C11.1387 5.41886 11.1228 5.4093 11.1083 5.39766C11.0743 5.37048 11.0497 5.33335 11.0378 5.29147C11.0154 5.13191 10.9838 4.97377 10.9431 4.81784C10.9376 4.79543 10.9366 4.77211 10.9403 4.74931C10.944 4.72651 10.9524 4.7047 10.9648 4.68521C10.971 4.67537 10.9783 4.66621 10.9862 4.65789C10.9942 4.64974 11.0031 4.64238 11.0125 4.63593C11.0315 4.62291 11.053 4.6139 11.0758 4.60944C11.0813 4.60726 11.0869 4.60538 11.0926 4.60379C11.098 4.60226 11.1035 4.601 11.1091 4.60001L11.1174 4.59875L11.1277 4.59779C11.1337 4.59741 11.1398 4.59734 11.1459 4.5976C11.1699 4.59864 11.1934 4.60472 11.2149 4.61544C11.2364 4.62618 11.2552 4.64131 11.2704 4.65986C11.2743 4.66465 11.278 4.66965 11.2813 4.67482L11.2845 4.67966L11.2891 4.68749L11.2924 4.69438L11.297 4.70475C11.2994 4.71073 11.3015 4.71687 11.3031 4.72312C11.3438 4.89181 11.3755 5.06255 11.3979 5.23463C11.4034 5.25844 11.4036 5.28315 11.3988 5.3071C11.394 5.33105 11.384 5.35367 11.3696 5.37343C11.3553 5.3932 11.3368 5.40964 11.3155 5.42165C11.2943 5.43365 11.2706 5.44095 11.2463 5.44303Z" fill="#FFE800"/>
<path d="M10.6506 8.59836C10.6741 8.60287 10.6961 8.61222 10.7157 8.62583C10.7309 8.6343 10.7446 8.64503 10.7566 8.6576C10.7611 8.66226 10.7651 8.66717 10.769 8.67231C10.7723 8.67683 10.7755 8.6815 10.7784 8.68632C10.781 8.69066 10.7834 8.6951 10.7857 8.69965C10.7914 8.71132 10.7958 8.72364 10.7988 8.73637C10.8003 8.74295 10.8014 8.74959 10.8021 8.75627L10.8031 8.76907V8.78154L10.8029 8.78701C10.8023 8.79371 10.8014 8.80039 10.8001 8.80702C10.7955 8.8304 10.7862 8.85258 10.7725 8.87212C10.6954 9.02393 10.6068 9.16959 10.5074 9.30786C10.5044 9.31309 10.5013 9.31816 10.4978 9.32304L10.4902 9.33298L10.4841 9.34002L10.4732 9.35092C10.4693 9.35449 10.4652 9.35788 10.461 9.36108C10.4512 9.3684 10.4408 9.37463 10.4299 9.37969C10.4193 9.38451 10.4082 9.38827 10.3968 9.39089C10.3736 9.39624 10.3496 9.39668 10.3261 9.39216C10.3028 9.38765 10.2806 9.3783 10.2612 9.3647C10.2397 9.35123 10.2212 9.33362 10.2068 9.3129C10.1981 9.30068 10.191 9.28751 10.1855 9.2737C10.1818 9.2641 10.1788 9.25419 10.1768 9.24406C10.1753 9.23716 10.1742 9.2302 10.1735 9.22321C10.1727 9.2151 10.1723 9.20695 10.1725 9.19881C10.1729 9.18882 10.174 9.17884 10.1759 9.16898C10.1807 9.14415 10.1903 9.12051 10.2042 9.09946C10.3035 8.96779 10.3923 8.82842 10.4695 8.68267C10.4747 8.67336 10.4808 8.66458 10.4876 8.65645C10.4959 8.64641 10.5054 8.63734 10.5159 8.62944C10.535 8.61514 10.5568 8.60499 10.5799 8.59964C10.589 8.59753 10.5982 8.59619 10.6075 8.59561C10.6129 8.59527 10.6182 8.59518 10.6236 8.59536C10.6327 8.59565 10.6417 8.59665 10.6506 8.59836Z" fill="#FFE800"/>
<path d="M11.4547 6.65552C11.4704 6.4855 11.4767 6.31473 11.4735 6.14401C11.4737 6.11898 11.4689 6.09441 11.4597 6.07162C11.4513 6.05149 11.4397 6.03275 11.4249 6.01632C11.409 5.99864 11.3901 5.98427 11.3692 5.97377C11.3487 5.96347 11.3263 5.95689 11.3031 5.95456C11.2528 5.95456 11.2047 5.97451 11.169 6.01004C11.1335 6.04557 11.1137 6.09376 11.1137 6.14401C11.1137 6.22926 11.1089 6.30978 11.1041 6.39029C11.0993 6.47081 11.0946 6.55132 11.0946 6.63658C11.0887 6.65938 11.0882 6.68324 11.0932 6.70626C11.0981 6.72928 11.1083 6.75084 11.1231 6.76923C11.1283 6.77568 11.134 6.78169 11.1401 6.7872C11.1512 6.79735 11.164 6.80579 11.1779 6.81218C11.1993 6.82204 11.2227 6.82678 11.2462 6.82603H11.2652C11.3122 6.82627 11.3579 6.80893 11.3929 6.7774C11.4278 6.74587 11.4499 6.70242 11.4547 6.65552Z" fill="#FFE800"/>
<path d="M4.35002 11.2111C4.36297 11.2132 4.37574 11.2166 4.38813 11.2213C4.53781 11.2617 4.68952 11.2934 4.84289 11.3161C4.85251 11.3198 4.86176 11.3243 4.87065 11.3295C4.87527 11.3321 4.87971 11.3349 4.88397 11.338C4.89137 11.3431 4.8984 11.3488 4.90487 11.3549L4.91375 11.3638L4.92226 11.3737L4.928 11.3815L4.93392 11.3897C4.95575 11.4233 4.9663 11.4629 4.96426 11.5029C4.96389 11.5099 4.96315 11.5168 4.96204 11.5236C4.96075 11.5314 4.9589 11.5391 4.95668 11.5466C4.95353 11.5573 4.94946 11.5677 4.94447 11.5777L4.9378 11.5901C4.93318 11.5978 4.928 11.6052 4.92226 11.6123C4.91782 11.6178 4.91301 11.623 4.90802 11.628C4.89414 11.6415 4.87842 11.6528 4.86139 11.6615C4.84955 11.6676 4.83697 11.6725 4.82384 11.676H4.78591L4.27454 11.5623H4.25548C4.24383 11.5592 4.23272 11.5548 4.22199 11.5492C4.21145 11.5438 4.20146 11.5372 4.19221 11.5297C4.18203 11.5213 4.17278 11.5118 4.16482 11.5013C4.16186 11.4975 4.15909 11.4936 4.1565 11.4895C4.15335 11.4845 4.15039 11.4794 4.1478 11.4741C4.13707 11.4526 4.13097 11.4292 4.13004 11.4052C4.12893 11.3812 4.133 11.3573 4.14188 11.335C4.15039 11.3112 4.16334 11.2893 4.18055 11.2706C4.19757 11.2519 4.21811 11.2368 4.24105 11.2263C4.25178 11.2213 4.26288 11.2174 4.27417 11.2146C4.28712 11.2113 4.30062 11.2094 4.31413 11.2089C4.32616 11.2085 4.33818 11.2093 4.35002 11.2111Z" fill="#FFE800"/>
<path d="M7.47617 11.1645L7.00254 11.2971C6.99144 11.2993 6.98071 11.3025 6.97053 11.3067C6.95962 11.3112 6.94907 11.3169 6.93926 11.3236C6.92021 11.3366 6.90393 11.3534 6.89153 11.3729C6.87914 11.3924 6.87081 11.4142 6.86711 11.437C6.86341 11.4598 6.86433 11.4831 6.86988 11.5055C6.87914 11.5524 6.90578 11.5941 6.94444 11.6222C6.98311 11.6503 7.03084 11.6627 7.07839 11.6571L7.58977 11.5055C7.61123 11.4972 7.63084 11.4846 7.6473 11.4686C7.66377 11.4525 7.67691 11.4333 7.68579 11.4121C7.69467 11.3908 7.69911 11.368 7.69892 11.345C7.69855 11.322 7.69374 11.2992 7.68449 11.2782C7.6819 11.2701 7.67876 11.2622 7.67524 11.2547C7.67006 11.244 7.66377 11.2339 7.65656 11.2246C7.64915 11.2149 7.64064 11.2059 7.63121 11.198C7.6227 11.1909 7.61345 11.1845 7.60346 11.1791C7.56442 11.1579 7.51891 11.1526 7.47617 11.1645Z" fill="#FFE800"/>
<path d="M3.09213 10.6887C3.11488 10.6914 3.13671 10.6986 3.15669 10.7098L3.5924 10.9371C3.61571 10.9479 3.63643 10.9633 3.65327 10.982C3.66881 10.9991 3.6812 11.0191 3.68971 11.0411C3.70729 11.0871 3.70637 11.1381 3.68712 11.1834C3.63033 11.2592 3.51654 11.3161 3.44087 11.2592C3.28139 11.1926 3.12913 11.1101 2.98611 11.0129C2.96632 11.0017 2.94874 10.9867 2.93468 10.9688C2.92043 10.9508 2.91007 10.9302 2.90397 10.9082C2.89786 10.8863 2.89601 10.8633 2.89879 10.8406C2.90138 10.8179 2.90859 10.796 2.91988 10.7761C2.9245 10.7678 2.92987 10.7599 2.93579 10.7525C2.94412 10.7422 2.95355 10.7328 2.96391 10.7246C2.98186 10.7105 3.00258 10.7001 3.02441 10.6939C3.04643 10.6878 3.06955 10.686 3.09213 10.6887Z" fill="#FFE800"/>
<path d="M9.67374 9.76254L9.33276 10.1036C9.315 10.1182 9.3002 10.1362 9.28947 10.1567C9.28522 10.1648 9.2817 10.1732 9.27874 10.1819C9.27559 10.1911 9.27337 10.2005 9.27189 10.2101L9.2706 10.2226C9.26875 10.2457 9.27171 10.2688 9.27911 10.2907C9.28152 10.2979 9.28448 10.305 9.28781 10.3118C9.29003 10.3163 9.29262 10.3207 9.29521 10.325C9.30057 10.3338 9.30686 10.3421 9.31389 10.3498C9.34682 10.3872 9.39289 10.4101 9.44266 10.4137C9.49224 10.4172 9.54127 10.4011 9.57901 10.3688C9.70834 10.2585 9.82878 10.1381 9.93905 10.0088C9.97383 9.97341 9.99326 9.9258 9.99326 9.87621C9.99326 9.82662 9.97383 9.77901 9.93905 9.7436C9.89964 9.71537 9.85154 9.70181 9.80306 9.70527C9.79566 9.7058 9.78845 9.70671 9.78123 9.70798C9.77402 9.70927 9.7668 9.71094 9.75977 9.71297C9.72776 9.72226 9.69816 9.73918 9.67374 9.76254Z" fill="#FFE800"/>
<path d="M8.25285 10.8424L8.66968 10.5961C8.71279 10.5754 8.762 10.5716 8.8077 10.5857C8.8534 10.5998 8.89207 10.6306 8.91593 10.6719C8.92962 10.6915 8.93887 10.7136 8.9435 10.737C8.94794 10.7604 8.94757 10.7845 8.9422 10.8077C8.93684 10.8309 8.92666 10.8527 8.91242 10.8717C8.89799 10.8908 8.88004 10.9066 8.85913 10.9182L8.40456 11.1834C8.36127 11.1942 8.31557 11.1894 8.27561 11.1698C8.25766 11.1611 8.24138 11.1496 8.22713 11.1359C8.20974 11.1191 8.1955 11.099 8.1855 11.0765C8.16737 11.0358 8.16423 10.99 8.17662 10.9472C8.18883 10.9044 8.21603 10.8673 8.25285 10.8424Z" fill="#FFE800"/>
</g>
<defs>
<clipPath id="clip0">
<rect width="12" height="12" fill="white" transform="translate(0.200195)"/>
</clipPath>
</defs>
</svg>
