<svg width="12" height="12" viewBox="0 0 12 12" fill="none" xmlns="http://www.w3.org/2000/svg">
<path fill-rule="evenodd" clip-rule="evenodd" d="M3.49092 0H9.89092C10.0903 0.0181942 10.2755 0.110447 10.4102 0.25855C10.5448 0.406654 10.619 0.599845 10.6182 0.799999V11.2727C10.6018 11.4601 10.5199 11.6357 10.3869 11.7687C10.2539 11.9017 10.0783 11.9836 9.89092 12H2.10911C1.91622 12 1.73124 11.9234 1.59485 11.787C1.45846 11.6506 1.38184 11.4656 1.38184 11.2727V2.10909L3.49092 0ZM3.49092 1.74546V0.727273L2.03638 2.10909H3.12729C3.22373 2.10909 3.31622 2.07078 3.38441 2.00259C3.45261 1.93439 3.49092 1.8419 3.49092 1.74546ZM10.1597 11.6022C10.1743 11.5669 10.1818 11.5291 10.1818 11.4909V0.799999C10.1835 0.714928 10.1554 0.63195 10.1022 0.565507C10.0491 0.499064 9.9743 0.453363 9.89092 0.436363H3.85456V1.74546C3.86475 1.84689 3.85351 1.94934 3.82156 2.04615C3.7896 2.14296 3.73765 2.23197 3.66907 2.30741C3.60049 2.38284 3.51682 2.44302 3.42348 2.48403C3.33015 2.52504 3.22923 2.54597 3.12729 2.54545H1.74547V11.4909C1.76247 11.5743 1.80817 11.6491 1.87461 11.7022C1.94105 11.7554 2.02404 11.7835 2.10911 11.7818H9.89092C9.92913 11.7818 9.96696 11.7743 10.0023 11.7597C10.0375 11.7451 10.0696 11.7236 10.0966 11.6966C10.1236 11.6696 10.1451 11.6375 10.1597 11.6022ZM5.09048 4.87273L8.21775 4L8.43594 4.21818C8.50866 4.21818 8.50866 4.2909 8.50866 4.36362V4.36364V7.92727C8.50866 8.43637 7.99957 8.87273 7.27229 8.87273C6.54502 8.87273 5.9632 8.50909 5.9632 7.92727C5.9632 7.34546 6.54502 6.98182 7.27229 6.98182C7.55448 6.97538 7.83245 7.05119 8.0723 7.2V5.52727L5.38139 6.25454V8.29091C5.38139 8.87273 4.79957 9.23636 4.0723 9.23636C3.34503 9.23636 2.83594 8.8 2.83594 8.29091C2.83594 7.78182 3.34503 7.34545 4.0723 7.34545C4.38619 7.35042 4.69093 7.452 4.94502 7.63636V5.09091C4.94502 4.94545 5.01775 4.87273 5.09048 4.87273ZM3.27229 8.29091C3.27229 8.58182 3.63594 8.87273 4.0723 8.87273C4.50866 8.87273 4.94502 8.58182 4.94502 8.29091C4.94502 8 4.50866 7.78182 4.0723 7.78182C3.63594 7.78182 3.27229 8 3.27229 8.29091ZM8.0723 4.50909L5.38139 5.23636V5.81818L8.0723 5.09091V4.50909ZM6.39957 7.92727C6.39957 8.21818 6.7632 8.43636 7.27229 8.43636C7.70866 8.43636 8.0723 8.21818 8.0723 7.92727C8.0723 7.63636 7.78139 7.34545 7.27229 7.34545C6.7632 7.34545 6.39957 7.63636 6.39957 7.92727Z" fill="#342A6D"/>
</svg>
