<svg width="12" height="13" viewBox="0 0 12 13" fill="none" xmlns="http://www.w3.org/2000/svg">
<path d="M8.17432 3.83455L4.43535 4.87798C4.34839 4.87798 4.26144 5.05189 4.26144 5.13884V8.70392C4.08754 8.61696 3.91363 8.53001 3.73972 8.53001C3.13105 8.53001 2.69629 8.96477 2.69629 9.57344C2.69629 10.1821 3.13105 10.6169 3.73972 10.6169C4.34839 10.6169 4.78317 10.1821 4.78317 9.57344C4.78317 9.48649 4.78317 6.35619 4.78317 6.35619L8.00042 5.48666V7.66048C7.82651 7.57353 7.6526 7.48657 7.4787 7.48657C6.87003 7.48657 6.43526 7.92134 6.43526 8.53001C6.43526 9.13868 6.87003 9.57344 7.4787 9.57344C8.08737 9.57344 8.52213 9.13868 8.52213 8.53001C8.52213 8.44306 8.52213 4.00845 8.52213 4.00845C8.52213 3.9215 8.34823 3.7476 8.17432 3.83455Z" fill="#F32735"/>
<path d="M2.69553 8.09527C2.52162 8.00832 2.34772 7.92135 2.08686 7.92135H1.6521C1.39124 7.92135 1.13038 7.74745 1.13038 7.48659H1.30429C1.39125 7.48659 1.4782 7.39964 1.4782 7.31269C1.4782 7.22573 1.39125 7.13878 1.30429 7.13878H0.869529C0.60867 7.13878 0.347806 6.96488 0.347806 6.70402C0.434759 6.70402 0.434756 6.70402 0.521709 6.70402H0.956473C1.04343 6.70402 1.13038 6.61707 1.13038 6.53012C1.13038 6.44316 1.04343 6.35621 0.956473 6.35621H0.521709C0.260851 6.35621 0 6.18231 0 5.92145H1.39124C2.17381 5.92145 2.78249 6.53011 2.78249 7.31269V8.09527H2.69553Z" fill="#62CBC9"/>
<path d="M11.0438 6.79102H10.609C10.5221 6.79102 10.4351 6.87797 10.4351 6.96492C10.4351 7.05187 10.5221 7.13882 10.609 7.13882H10.7829C10.696 7.39968 10.5221 7.57359 10.2612 7.57359H9.82644C9.56558 7.57359 9.39168 7.66054 9.21777 7.74749V6.96492C9.21777 6.18234 9.82645 5.57367 10.609 5.57367H12.0003C11.9133 5.83453 11.7394 6.00843 11.4786 6.00843H11.0438C10.9568 6.00843 10.8699 6.09538 10.8699 6.18234C10.8699 6.26929 10.9568 6.35625 11.0438 6.35625H11.4786C11.5655 6.35625 11.5655 6.35625 11.6525 6.35625C11.5655 6.61711 11.3046 6.79102 11.0438 6.79102Z" fill="#62CBC9"/>
<path d="M2.4348 4.53018L2.26089 4.96495L1.91309 4.87799L2.08699 4.44322C2.08699 4.44322 2.34785 3.5737 2.95652 3.05199C2.95652 3.05199 3.7391 2.18246 4.95644 2.00856C4.95644 2.00856 5.39119 1.9216 5.73901 2.00856C6.08682 2.00856 6.43464 2.18246 6.52159 2.18246L6.95635 2.35636L6.8694 2.70417L6.34767 2.53026C6.34767 2.53026 5.56511 2.26941 4.95644 2.44332C4.08691 2.44332 2.95651 2.96503 2.4348 4.53018Z" fill="#F32735"/>
<path d="M10.4346 9.05174L10.5215 8.53003L10.8694 8.61697L10.7824 9.1387C10.7824 9.1387 10.6085 10.0952 10.0868 10.6169C10.0868 10.6169 9.39116 11.5734 8.17382 11.8342C8.17382 11.8342 7.73906 11.9212 7.39125 11.9212C7.04344 11.9212 6.69563 11.8342 6.52172 11.8342L6 11.7473L6.08696 11.3995L6.60867 11.4864C6.60867 11.4864 7.39125 11.6603 7.99992 11.4864C8.9564 11.2256 9.99984 10.7038 10.4346 9.05174Z" fill="#F32735"/>
</svg>
