<svg width="13" height="13" viewBox="0 0 13 13" fill="none" xmlns="http://www.w3.org/2000/svg">
<g clip-path="url(#clip0)">
<path d="M0.201172 9.80794V3.64282H0.861728V4.52356V9.80794H0.201172Z" fill="#62CBC9"/>
<path d="M12.2013 5.73451C11.2104 3.75286 9.66915 2.21159 7.6875 1.22076H12.2013V5.73451Z" fill="#FFE800"/>
<path d="M2.40332 11.8997C2.40332 12.34 2.73359 12.6703 3.17396 12.6703H9.00882C9.11891 12.6703 9.229 12.5602 9.229 12.4501V5.07399C9.229 4.9639 9.11891 4.85379 9.00882 4.85379H8.78864V4.30334H9.00882C9.11891 4.30334 9.229 4.19325 9.229 4.08316C9.229 3.97306 9.11891 3.86298 9.00882 3.86298H3.17396C2.73359 3.86298 2.40332 4.19325 2.40332 4.63361V11.8997ZM3.28406 4.19325H8.34828V4.74371H3.28406C3.17397 4.74371 3.06388 4.63362 3.06388 4.52353C2.95379 4.30335 3.06387 4.19325 3.28406 4.19325ZM2.95378 5.18407C3.06387 5.18407 3.17396 5.18407 3.17396 5.18407H8.67854V12.1198H3.17396C3.06387 12.1198 2.95378 12.0098 2.95378 11.8997V5.18407Z" fill="#FFE800"/>
<path d="M5.04525 11.129C5.59571 11.129 6.14617 10.7987 6.14617 10.3584V7.49598C6.36635 7.60607 6.58653 7.82626 6.80671 7.82626C7.35717 8.04644 7.35717 8.70699 6.91681 8.92718C6.80672 9.03727 6.69662 9.14735 6.80671 9.25744C6.9168 9.36753 7.0269 9.47763 7.13699 9.36754C8.01772 8.92717 8.12781 7.60608 7.02689 7.2758C6.36634 7.05562 6.25626 6.50515 6.14617 6.50515C6.03608 6.28496 5.59571 6.39506 5.59571 6.61525V9.58772C5.48562 9.47763 5.26544 9.47764 5.04525 9.47764C4.49479 9.47764 3.94434 9.80791 3.94434 10.2483C3.94434 10.6886 4.49479 11.129 5.04525 11.129ZM5.04525 10.0281C5.37553 10.0281 5.59571 10.1382 5.59571 10.2483C5.59571 10.3584 5.37553 10.4685 5.04525 10.4685C4.71498 10.4685 4.49479 10.3584 4.49479 10.2483C4.60489 10.1382 4.71498 10.0281 5.04525 10.0281Z" fill="#FFE800"/>
</g>
<defs>
<clipPath id="clip0">
<rect width="12" height="12" fill="white" transform="translate(0.200195 0.945557)"/>
</clipPath>
</defs>
</svg>
