<svg width="12" height="13" viewBox="0 0 12 13" fill="none" xmlns="http://www.w3.org/2000/svg">
<g clip-path="url(#clip0)">
<path d="M10.1944 11.4587V1.26434H0V11.4587H10.1944ZM0.637153 6.5739C2.97336 6.5739 4.8848 8.48534 4.8848 10.8215H0.637153V6.5739ZM5.30955 3.91912C5.73432 4.87484 6.47766 5.61818 7.43338 6.04294H5.30955V3.91912ZM4.8848 8.69772C4.46003 7.742 3.71669 6.99866 2.76097 6.5739H4.8848V8.69772ZM5.30955 10.8215V6.5739H9.5572V10.8215H5.30955ZM9.5572 6.14912C7.22099 6.14912 5.30955 4.23768 5.30955 1.90148H9.5572V6.14912ZM4.8848 1.90148V6.14912H0.637153V1.90148H4.8848Z" fill="#62CBC9"/>
<path d="M10.1949 12.6268C11.1919 12.6268 12.0001 11.8186 12.0001 10.8215C12.0001 9.82453 11.1919 9.0163 10.1949 9.0163C9.19787 9.0163 8.38965 9.82453 8.38965 10.8215C8.38965 11.8186 9.19787 12.6268 10.1949 12.6268Z" fill="#F32735"/>
</g>
<defs>
<clipPath id="clip0">
<rect width="12" height="12" fill="white" transform="translate(0 0.945557)"/>
</clipPath>
</defs>
</svg>
