<svg width="12" height="12" viewBox="0 0 12 12" fill="none" xmlns="http://www.w3.org/2000/svg">
<g clip-path="url(#clip0)">
<path fill-rule="evenodd" clip-rule="evenodd" d="M11.6444 0.442446C12.093 0.89102 12.0182 1.41435 11.9435 1.41435V1.48911H11.8687C11.9055 1.53024 11.9258 1.58347 11.9258 1.63864C11.9258 1.69381 11.9055 1.74704 11.8687 1.78816H11.5697L11.3454 2.01245H11.4202C11.4569 2.05358 11.4773 2.10681 11.4773 2.16198C11.4773 2.21715 11.4569 2.27038 11.4202 2.3115H11.1211L10.8968 2.53579C10.9127 2.54982 10.9255 2.56708 10.9342 2.58641C10.9429 2.60575 10.9474 2.62672 10.9474 2.64793C10.9474 2.66915 10.9429 2.69012 10.9342 2.70946C10.9255 2.72879 10.9127 2.74605 10.8968 2.76008H10.523L9.92491 3.05913L7.90632 5.15247C8.17399 5.42206 8.35316 5.76682 8.41995 6.14081C8.48673 6.51479 8.43795 6.90025 8.28013 7.24582C8.18097 7.46218 8.03604 7.65445 7.85533 7.80934C7.67462 7.96423 7.46245 8.07806 7.23346 8.14297C6.94167 8.24689 6.68336 8.42771 6.48584 8.66631L6.26154 9.33916C6.22756 9.83926 6.06523 10.3221 5.79021 10.7412C5.5152 11.1603 5.13681 11.5014 4.69155 11.7316C4.3877 11.876 4.05603 11.9525 3.71962 11.9558C2.81399 11.8791 1.96556 11.4814 1.32724 10.8344L1.17771 10.6849L1.16416 10.6694C0.634101 10.0638 -0.534816 8.72831 0.280551 7.24582C0.516326 6.80502 0.85884 6.43036 1.27677 6.15609C1.69471 5.88182 2.17474 5.71669 2.67296 5.67581C2.75308 5.65578 2.82784 5.64111 2.89724 5.6275C3.08683 5.59031 3.23635 5.56098 3.34581 5.45152C3.4645 5.37814 3.56599 5.28006 3.6434 5.16396C3.7208 5.04785 3.77231 4.91644 3.79439 4.77866C3.94586 4.30751 4.26514 3.90842 4.69155 3.65722C5.05202 3.51217 5.44574 3.47032 5.82866 3.53633C6.21157 3.60235 6.56856 3.77365 6.85965 4.03104L8.87822 2.01245L9.17729 1.48911V1.33959C9.16138 1.32556 9.14862 1.3083 9.1399 1.28897C9.13117 1.26963 9.12666 1.24866 9.12666 1.22745C9.12666 1.20623 9.13117 1.18527 9.1399 1.16593C9.14862 1.1466 9.16138 1.12933 9.17729 1.1153C9.21841 1.07852 9.27163 1.05819 9.3268 1.05819C9.38197 1.05819 9.43521 1.07852 9.47634 1.1153L9.70061 0.96578H9.62585C9.58907 0.924659 9.56874 0.871427 9.56874 0.816258C9.56874 0.761088 9.58907 0.707851 9.62585 0.66673H9.99966L10.1492 0.442446C10.1124 0.401325 10.0921 0.348087 10.0921 0.292918C10.0921 0.237748 10.1124 0.184516 10.1492 0.143395C10.1632 0.127485 10.1805 0.11474 10.1998 0.106012C10.2192 0.0972837 10.2401 0.0927731 10.2613 0.0927731C10.2825 0.0927731 10.3035 0.0972837 10.3229 0.106012C10.3422 0.11474 10.3594 0.127485 10.3735 0.143395H10.523C10.523 0.123567 10.5309 0.104552 10.5449 0.0905315C10.5589 0.0765108 10.5779 0.0686341 10.5978 0.0686341C10.7897 0.0263773 10.9897 0.0390238 11.1748 0.105133C11.3599 0.171243 11.5227 0.288144 11.6444 0.442446ZM7.64871 7.52905C7.79136 7.41233 7.90512 7.26423 7.98109 7.09629V7.17106C8.11038 6.90541 8.15806 6.60742 8.11814 6.31469C8.07822 6.02196 7.95248 5.74761 7.75679 5.52628L6.56061 6.72248C6.53403 7.05354 6.40316 7.36765 6.1868 7.61963C6.06543 7.72783 5.92327 7.81016 5.76902 7.86157C5.61477 7.91299 5.45165 7.93243 5.28964 7.91868C5.13951 7.9265 4.98934 7.90406 4.84806 7.85268C4.70679 7.80131 4.57729 7.72205 4.46725 7.61963C4.25089 7.36765 4.12001 7.05354 4.09344 6.72248C4.10193 6.3873 4.23523 6.06737 4.46725 5.82533C4.57729 5.72291 4.70679 5.64366 4.84806 5.59228C4.98934 5.54091 5.13951 5.51846 5.28964 5.52628H5.36441L6.63535 4.33009C6.41049 4.11569 6.12707 3.97284 5.82097 3.9196C5.51487 3.86637 5.19987 3.90515 4.91583 4.03104C4.5936 4.2078 4.35242 4.50257 4.24297 4.85342C4.16006 5.23603 3.94905 5.57889 3.64486 5.82533C3.38483 5.94454 3.10704 6.02031 2.82249 6.04962C2.36886 6.07771 1.93035 6.22347 1.55017 6.47255C1.17 6.72162 0.861266 7.06543 0.654363 7.4701C-0.0184981 8.6663 1.02818 9.93726 1.47675 10.3858L1.70105 10.5354C2.14963 10.9839 3.34582 12.0306 4.61678 11.3577C4.99725 11.148 5.31947 10.8468 5.55441 10.4813C5.78935 10.1158 5.9296 9.69762 5.9625 9.2644C5.98959 8.96907 6.09261 8.68577 6.26154 8.44202C6.501 8.14767 6.80908 7.91662 7.1587 7.76915C7.33835 7.72794 7.50605 7.64577 7.64871 7.52905ZM5.69206 5.95501C5.61369 5.91582 5.52674 5.89694 5.43917 5.90009L5.28964 5.82533C5.07153 5.82533 4.86234 5.91198 4.70811 6.0662C4.55389 6.22043 4.46725 6.42961 4.46725 6.64772C4.46725 6.86583 4.55389 7.07501 4.70811 7.22923C4.86234 7.38346 5.07153 7.4701 5.28964 7.4701C5.39925 7.4745 5.50865 7.45692 5.61136 7.4184C5.71408 7.37988 5.80803 7.32121 5.88773 7.24582C5.98538 7.18084 6.06436 7.09146 6.11682 6.98655C6.16928 6.88163 6.19341 6.76483 6.1868 6.64772C6.13342 6.45061 6.03045 6.27044 5.88773 6.12438C5.83771 6.05243 5.77044 5.99419 5.69206 5.95501ZM6.29639 5.97655C6.35625 6.04547 6.41107 6.1086 6.41107 6.19915L9.62585 2.9096L9.10252 2.38627L5.81298 5.60104L6.1868 5.82533C6.21629 5.88431 6.25741 5.93166 6.29639 5.97655ZM11.4202 1.48911L11.6444 1.26483C11.6128 1.03813 11.5078 0.828033 11.3454 0.66673C11.2685 0.587487 11.1749 0.526276 11.0715 0.487495C10.9681 0.448715 10.8574 0.433331 10.7473 0.442446L9.62585 1.56388L9.40157 2.08722L9.92491 2.68532L10.523 2.38627L10.9716 1.93769L11.4202 1.48911ZM2.11172 7.94699C2.15378 7.94699 2.19411 7.9637 2.22386 7.99344L4.09291 9.78774C4.12969 9.82886 4.15002 9.88209 4.15002 9.93726C4.15002 9.99243 4.12969 10.0457 4.09291 10.0868H3.79387L1.99958 8.21773C1.96984 8.18799 1.95312 8.14765 1.95312 8.10559C1.95312 8.06353 1.96984 8.02319 1.99958 7.99344C2.02932 7.9637 2.06965 7.94699 2.11172 7.94699Z" fill="#342A6D"/>
</g>
<defs>
<clipPath id="clip0">
<rect width="12" height="12" fill="white"/>
</clipPath>
</defs>
</svg>
