<svg width="13" height="12" viewBox="0 0 13 12" fill="none" xmlns="http://www.w3.org/2000/svg">
<g clip-path="url(#clip0)">
<path d="M6.31181 3.15086L5.97446 3.78992C5.96718 3.80697 5.95452 3.82127 5.93857 3.83082C5.9228 3.84038 5.90425 3.84469 5.8857 3.84317L5.17564 3.93193C5.15553 3.93667 5.13698 3.94632 5.12155 3.96002C5.10629 3.97372 5.09451 3.99103 5.0874 4.0104C5.08046 4.02977 5.07821 4.05058 5.08133 4.07097C5.08428 4.09136 5.09225 4.11068 5.10456 4.1272L5.60174 4.64199C5.61561 4.65571 5.62601 4.67251 5.63208 4.69101C5.63468 4.69891 5.63659 4.70702 5.63763 4.71523C5.63901 4.72626 5.63884 4.73744 5.63711 4.7485L5.49513 5.44081C5.48906 5.4641 5.48976 5.48867 5.49721 5.51154C5.50484 5.53441 5.51888 5.5546 5.5376 5.56965C5.5565 5.58469 5.57921 5.59394 5.60313 5.59628C5.62723 5.59863 5.65132 5.59396 5.67265 5.58283L6.31181 5.2633C6.32793 5.25395 6.3463 5.24903 6.36503 5.24903C6.38375 5.24903 6.40212 5.25395 6.41825 5.2633L7.03955 5.61833C7.05949 5.62789 7.0815 5.63199 7.10352 5.6302C7.11583 5.6292 7.12779 5.62638 7.13923 5.62188C7.14825 5.61833 7.15674 5.61373 7.16471 5.60815C7.18274 5.5955 7.19713 5.57826 7.20632 5.55821C7.21169 5.54667 7.21516 5.53443 7.21672 5.52194C7.21793 5.51273 7.21811 5.50338 7.21707 5.49407L7.11063 4.78401C7.11409 4.74626 7.12623 4.70983 7.14599 4.6775L7.67854 4.1982C7.69553 4.18192 7.70766 4.16116 7.71321 4.13833C7.7165 4.12507 7.71754 4.11144 7.7165 4.09796C7.71564 4.08823 7.71356 4.07859 7.71044 4.06924C7.70298 4.04693 7.68946 4.02719 7.67126 4.01231C7.65306 3.99743 7.63087 3.98803 7.60764 3.98519L6.91526 3.87868C6.87868 3.86538 6.84747 3.84043 6.8265 3.80767L6.52469 3.16861C6.52711 3.14037 6.5181 3.11234 6.4999 3.0907C6.48152 3.06906 6.45534 3.05558 6.42709 3.05323C6.40993 3.05179 6.39276 3.05457 6.37716 3.06112C6.36711 3.0653 6.35775 3.07101 6.34925 3.07815C6.32758 3.09646 6.31406 3.12261 6.31181 3.15086Z" fill="#FFE800"/>
<path fill-rule="evenodd" clip-rule="evenodd" d="M12.1164 10.6775H0.666664V10.6598C0.596109 10.6598 0.528327 10.6317 0.478401 10.5818C0.428474 10.5319 0.400391 10.4641 0.400391 10.3935V10.0917C0.400391 10.074 0.400391 10.0562 0.418073 10.0562L1.58978 7.07396V1.58872C1.58978 1.5181 1.61786 1.45037 1.66779 1.40044C1.71772 1.3505 1.78533 1.32245 1.85606 1.32245H10.927C10.9978 1.32245 11.0654 1.3505 11.1153 1.40044C11.1652 1.45037 11.1933 1.5181 11.1933 1.58872V7.07396L12.365 10.0385C12.3846 10.0772 12.3968 10.1194 12.4004 10.1627V10.4113C12.3959 10.4835 12.364 10.5512 12.3113 10.6007C12.2584 10.6502 12.1887 10.6777 12.1164 10.6775ZM5.47727 9.04439L5.22886 9.8077H7.55424L7.30583 9.04439H5.47727ZM10.3945 2.01476H2.3886V6.70118H10.3945V2.01476Z" fill="#FFE800"/>
</g>
<defs>
<clipPath id="clip0">
<rect width="12" height="12" fill="white" transform="translate(0.400391)"/>
</clipPath>
</defs>
</svg>
