<svg width="12" height="12" viewBox="0 0 12 12" fill="none" xmlns="http://www.w3.org/2000/svg">
<path d="M10.6057 0.0153553L3.95217 1.88194C3.85421 1.90897 3.76823 1.96825 3.70814 2.0502C3.64804 2.13215 3.61734 2.23197 3.621 2.33353V8.71606C3.33713 8.54988 3.01644 8.45678 2.68771 8.44511C2.18467 8.44511 1.70224 8.64493 1.34654 9.00063C0.990845 9.35633 0.791016 9.83876 0.791016 10.3418C0.849073 10.7999 1.07223 11.221 1.41864 11.5263C1.76505 11.8316 2.21093 12 2.67266 12C3.13439 12 3.58026 11.8316 3.92667 11.5263C4.27308 11.221 4.49624 10.7999 4.5543 10.3418V4.5915L10.2745 2.96576V6.84947C9.98596 6.66868 9.65155 6.57463 9.31108 6.57851C8.93468 6.57856 8.5668 6.6906 8.25428 6.90038C7.94175 7.11015 7.6987 7.40816 7.55607 7.7565C7.41344 8.10483 7.37768 8.48773 7.45334 8.85645C7.529 9.22517 7.71265 9.56303 7.98093 9.82705C8.24921 10.0911 8.58998 10.2693 8.95986 10.3391C9.32974 10.4088 9.71201 10.3669 10.058 10.2187C10.404 10.0706 10.6981 9.82277 10.9029 9.50693C11.1076 9.19108 11.2138 8.82146 11.2078 8.44511V0.466949C11.2056 0.394693 11.1871 0.323858 11.1538 0.259702C11.1205 0.195546 11.0732 0.13971 11.0153 0.0963357C10.9575 0.0529615 10.8906 0.0231638 10.8197 0.00914443C10.7488 -0.00487494 10.6756 -0.00275117 10.6057 0.0153553V0.0153553Z" fill="#FFE800"/>
</svg>
