<svg width="13" height="13" viewBox="0 0 13 13" fill="none" xmlns="http://www.w3.org/2000/svg">
<g clip-path="url(#clip0)">
<path d="M11.7248 6.60594C8.55495 6.60594 5.95117 4.11537 5.95117 0.945557H11.7248V6.60594Z" fill="#62CBC9"/>
<path d="M7.76196 1.8512C9.12045 3.54931 8.89404 4.11535 11.1582 4.68139L6.62988 6.49272L7.76196 1.8512Z" fill="#62CBC9"/>
<path d="M3.00708 12.9456C3.68632 12.9456 4.13915 12.3795 4.13915 11.8135V7.05877C4.59198 7.62481 5.0448 8.07763 5.61084 8.41726C5.83725 8.64367 5.95046 8.87009 5.95046 9.09651C5.95046 9.54934 5.49763 10.0022 5.0448 10.0022C4.93159 10.0022 4.70519 10.1154 4.70519 10.3418C4.70519 10.455 4.81838 10.6814 5.0448 10.6814C5.83725 10.6814 6.5165 10.0022 6.5165 9.20971C6.5165 8.75688 6.29009 8.30406 5.95046 7.96443C5.38443 7.62481 4.81838 7.05877 4.47876 6.49273L4.13915 5.92669C4.02595 5.81348 3.91273 5.81348 3.79953 5.81348C3.68632 5.81348 3.57311 5.92669 3.57311 6.1531V10.7946C3.3467 10.6814 3.23349 10.6814 3.00708 10.6814C2.32783 10.6814 1.875 11.2474 1.875 11.8135C1.875 12.3795 2.32783 12.9456 3.00708 12.9456Z" fill="#FFE800"/>
</g>
<defs>
<clipPath id="clip0">
<rect width="12" height="12" fill="white" transform="translate(0.799805 0.945557)"/>
</clipPath>
</defs>
</svg>
