<svg width="13" height="13" viewBox="0 0 13 13" fill="none" xmlns="http://www.w3.org/2000/svg">
<g clip-path="url(#clip0)">
<path d="M5.18851 4.28367L6.64028 1.38012C6.88225 1.01717 7.48716 1.01717 7.60814 1.38012L8.93893 4.28367C9.05992 4.40465 9.1809 4.52563 9.30188 4.64661L12.4474 5.25152C12.9313 5.3725 13.0523 5.85643 12.6894 6.21938L10.2697 8.39705C10.1487 8.51803 10.0278 8.639 10.1487 8.88096L10.6327 12.1475C10.7537 12.6314 10.2697 12.8733 9.78581 12.7524L7.00323 11.1796C6.88225 11.0586 6.64029 11.0586 6.51931 11.1796L3.61575 12.6314C3.2528 12.8734 2.76888 12.5104 2.88986 12.0265L3.49477 8.88096C3.49477 8.75998 3.49477 8.51803 3.37379 8.39705L1.07514 6.09839C0.712196 5.73544 0.954163 5.25153 1.43809 5.13055L4.70458 4.7676C4.94655 4.52564 5.06753 4.40465 5.18851 4.28367Z" fill="#62CBC9"/>
</g>
<defs>
<clipPath id="clip0">
<rect width="12" height="12" fill="white" transform="translate(0.900391 0.945557)"/>
</clipPath>
</defs>
</svg>
