<svg width="12" height="12" viewBox="0 0 12 12" fill="none" xmlns="http://www.w3.org/2000/svg">
<g clip-path="url(#clip0)">
<path d="M6.00001 12C7.1867 12 8.34673 11.6481 9.33342 10.9888C10.3201 10.3295 11.0892 9.39246 11.5433 8.2961C11.9974 7.19974 12.1162 5.99334 11.8847 4.82946C11.6532 3.66557 11.0818 2.59647 10.2427 1.75736C9.40354 0.918245 8.33443 0.346803 7.17055 0.115291C6.00666 -0.11622 4.80027 0.00259858 3.70392 0.456724C2.60756 0.91085 1.67048 1.67989 1.01119 2.66658C0.3519 3.65328 0 4.81331 0 6C0 7.5913 0.632148 9.11742 1.75737 10.2426C2.88258 11.3679 4.40871 12 6.00001 12V12ZM7.84616 11C8.13241 10.5291 8.38931 10.041 8.61539 9.53846H10C9.3993 10.1793 8.6636 10.6785 7.84616 11ZM10.5385 8.76923H8.84615C9.07608 7.96971 9.17991 7.13921 9.15386 6.30769H11.3077C11.264 7.18014 10.9993 8.02716 10.5385 8.76923V8.76923ZM10.5385 3.15385C10.9773 3.90581 11.2403 4.74734 11.3077 5.61538H9.15386C9.17058 4.78433 9.06692 3.95522 8.84615 3.15385H10.5385ZM10 2.46154H8.61539C8.40553 1.95125 8.14798 1.4619 7.84616 1C8.67733 1.29487 9.41892 1.7981 10 2.46154V2.46154ZM6.38463 0.769236C7.07684 1.11734 7.60252 1.72603 7.84616 2.46154H6.38463V0.769236ZM6.38463 3.15385H8.07692C8.32266 3.95164 8.45219 4.78066 8.46154 5.61538H6.38463V3.15385ZM6.38463 6.30769H8.46154C8.46525 7.14345 8.33541 7.97444 8.07692 8.76923H6.38463V6.30769ZM6.38463 9.53846H7.84616C7.53847 10.1538 7.07693 11 6.38463 11.2308V9.53846ZM2.07693 9.53846H3.46154C3.65662 10.0555 3.91499 10.5464 4.23077 11C3.4041 10.6963 2.66455 10.1944 2.07693 9.53846V9.53846ZM5.69232 11.2308C5.00011 10.8827 4.4744 10.274 4.23077 9.53846H5.69232V11.2308ZM5.69232 8.76923H3.92308C3.70207 7.96593 3.57304 7.14012 3.53846 6.30769H5.69232V8.76923ZM5.69232 5.61538H3.53846C3.58514 4.78419 3.71397 3.95966 3.92308 3.15385H5.69232V5.61538ZM5.69232 0.769236V2.46154H4.23077C4.33891 2.09122 4.52539 1.74846 4.77755 1.45648C5.02971 1.1645 5.34168 0.930131 5.69232 0.769236V0.769236ZM4.23077 1C3.89967 1.44406 3.64011 1.93721 3.46154 2.46154H2.07693C2.64269 1.781 3.38936 1.27432 4.23077 1V1ZM1.53846 3.15385H3.23078C3.02167 3.95966 2.89283 4.78419 2.84616 5.61538H0.76923C0.798605 4.74046 1.06443 3.88982 1.53846 3.15385V3.15385ZM0.76923 6.30769H2.84616C2.88073 7.14012 3.00977 7.96593 3.23078 8.76923H1.53846C1.04533 8.04233 0.777736 7.18604 0.76923 6.30769V6.30769Z" fill="#342A6D"/>
</g>
<defs>
<clipPath id="clip0">
<rect width="12" height="12" fill="white"/>
</clipPath>
</defs>
</svg>
